<svg xmlns="http://www.w3.org/2000/svg" viewBox="0 0 100 100"><circle cx="50" cy="50" r="50" fill="#a02818"/><ellipse cx="50.0" cy="24.0" rx="31.0" ry="8.7" fill="#fbfaf7"/><ellipse cx="51.2" cy="27.9" rx="29.3" ry="8.2" fill="#fbfaf7"/><ellipse cx="52.4" cy="31.7" rx="27.5" ry="7.7" fill="#fbfaf7"/><ellipse cx="53.5" cy="35.6" rx="25.8" ry="7.2" fill="#fbfaf7"/><ellipse cx="54.5" cy="39.5" rx="24.1" ry="6.7" fill="#fbfaf7"/><ellipse cx="55.2" cy="43.3" rx="22.3" ry="6.3" fill="#fbfaf7"/><ellipse cx="55.7" cy="47.2" rx="20.6" ry="5.8" fill="#fbfaf7"/><ellipse cx="56.0" cy="51.1" rx="18.9" ry="5.3" fill="#fbfaf7"/><ellipse cx="56.0" cy="54.9" rx="17.1" ry="4.8" fill="#fbfaf7"/><ellipse cx="55.7" cy="58.8" rx="15.4" ry="4.3" fill="#fbfaf7"/><ellipse cx="55.2" cy="62.7" rx="13.7" ry="3.8" fill="#fbfaf7"/><ellipse cx="54.5" cy="66.5" rx="11.9" ry="3.3" fill="#fbfaf7"/><ellipse cx="53.5" cy="70.4" rx="10.2" ry="2.9" fill="#fbfaf7"/><ellipse cx="52.4" cy="74.3" rx="8.5" ry="2.4" fill="#fbfaf7"/><ellipse cx="51.2" cy="78.1" rx="6.7" ry="1.9" fill="#fbfaf7"/><ellipse cx="50.0" cy="82.0" rx="5.0" ry="1.4" fill="#fbfaf7"/></svg>
